# WaveFront *.obj file (generated by Autodesk ATF)

mtllib 0f4b16bd-e823-46a7-a462-4ee19fa2e124.mtl

g Body30

v 6.255958 0.000000 0.499995
v 6.255958 0.000000 0.500908
v 6.255902 0.000000 0.659603
v 6.255902 -0.050000 0.659603
v 6.255958 -0.050000 0.499995
v 0.000061 -0.050000 2.190390
v 0.000061 0.000000 2.190390
v 6.260000 0.000000 0.500000
v 6.260000 -0.050000 0.499995
v 6.500000 0.000000 0.500000
v 6.336969 0.000000 0.499995
v 6.336969 -0.050000 0.499995
v 6.500000 -0.050000 0.500000
v 0.000063 0.000000 1.906537
v -0.049939 -0.050000 2.190389
v -0.049926 -0.050000 -0.000000
v 0.000000 -0.050000 0.000000
v 6.500000 -0.050000 0.000000
v -0.049939 0.000000 2.190389
v 0.000061 0.000000 2.191537
v -0.049939 0.000000 2.191537
v 6.500000 0.150000 0.000000
v 6.500000 0.150000 0.500000
v 6.500000 0.100000 0.500000
v -0.049926 0.150000 -0.000000
v 0.000000 0.150000 0.000000
v 0.000061 0.100000 2.190390
v -0.049939 0.100000 2.190389
v -0.049939 0.100000 2.191537
v 0.000061 0.100000 2.191537
v 0.000063 0.100000 1.906537
v 6.255958 0.100000 0.500908
v 6.255958 0.100000 0.499995
v 6.255958 0.150000 0.499995
v 6.255902 0.150000 0.659603
v 6.255902 0.100000 0.659603
v 0.000061 0.150000 2.190390
v 6.260000 0.100000 0.499995
v 6.260000 0.150000 0.499995
v 6.336969 0.100000 0.499995
v 6.336969 0.150000 0.499995
v -0.049939 0.150000 2.190389
vt -0.015961 0.000000 0.000000
vt -0.015870 -0.000000 0.000000
vt -0.015961 0.005000 0.000000
vt -0.000000 0.005000 0.000000
vt -0.000000 0.000000 0.000000
vt 0.000005 0.005000 0.000000
vt -0.644035 0.005000 0.000000
vt 0.000005 -0.000000 0.000000
vt -0.644035 0.000000 0.000000
vt -0.000404 0.000000 0.000000
vt 0.000000 -0.000000 0.000000
vt -0.000404 0.005000 0.000000
vt 0.000000 0.005000 0.000000
vt -0.016303 0.000000 0.000000
vt 0.000000 0.000000 0.000000
vt -0.016303 0.005000 0.000000
vt 0.000000 0.005000 0.000000
vt -0.007697 0.000000 0.000000
vt -0.000000 0.000000 0.000000
vt -0.007697 0.005000 0.000000
vt -0.000000 0.005000 0.000000
vt -0.028385 -0.000000 0.000000
vt 0.124697 -0.625583 0.000000
vt 0.000000 -0.000000 0.000000
vt 0.140567 -0.625589 0.000000
vt -0.219039 0.005000 0.000000
vt -0.219039 0.000007 0.000000
vt 0.000000 0.005000 0.000000
vt -0.000000 -0.000000 0.000000
vt -0.153082 -0.625583 0.000000
vt -0.169043 -0.625589 0.000000
vt -0.219043 -0.649993 0.000000
vt -0.169043 -0.625993 0.000000
vt -0.169043 -0.633690 0.000000
vt -0.169043 -0.649993 0.000000
vt -0.005000 0.000000 0.000000
vt -0.000000 0.000000 0.000000
vt -0.005000 0.005000 0.000000
vt 0.000000 0.005000 0.000000
vt 0.169039 0.000000 0.000000
vt 0.169154 -0.000000 0.000000
vt 0.169039 0.005000 0.000000
vt 0.169154 0.005000 0.000000
vt 0.000087 -0.625589 0.000000
vt -0.000004 -0.625589 0.000000
vt -0.000004 -0.625993 0.000000
vt 0.050000 0.005000 0.000000
vt 0.000000 0.000000 0.000000
vt 0.050000 -0.015000 0.000000
vt 0.000000 -0.010000 0.000000
vt 0.000000 -0.015000 0.000000
vt 0.000000 0.005000 0.000000
vt 0.005000 0.000000 0.000000
vt 0.000007 0.000000 0.000000
vt 0.005000 -0.020000 0.000000
vt 0.000007 -0.020000 0.000000
vt 0.000000 0.028385 0.000000
vt 0.005000 0.028385 0.000000
vt 0.000000 0.028500 0.000000
vt 0.005000 0.028500 0.000000
vt 0.000000 0.000000 0.000000
vt 0.010000 0.000000 0.000000
vt 0.000000 0.028385 0.000000
vt 0.010000 0.028385 0.000000
vt 0.000000 0.028500 0.000000
vt 0.010000 0.028500 0.000000
vt 0.000000 0.010000 0.000000
vt -0.005000 0.010000 0.000000
vt 0.000000 0.000000 0.000000
vt -0.005000 0.000000 0.000000
vt 0.015961 0.000000 0.000000
vt 0.015961 0.005000 0.000000
vt 0.015870 -0.000000 0.000000
vt 0.000000 0.005000 0.000000
vt 0.000000 0.000000 0.000000
vt 0.644035 0.005000 0.000000
vt -0.000005 0.005000 0.000000
vt 0.644035 0.000000 0.000000
vt -0.000005 0.000000 0.000000
vt -0.070325 0.312593 0.000000
vt -0.070234 0.312593 0.000000
vt -0.070325 0.312997 0.000000
vt -0.000000 0.000000 0.000000
vt 0.000404 0.000000 0.000000
vt -0.000000 0.005000 0.000000
vt 0.000404 0.005000 0.000000
vt -0.000000 0.000000 0.000000
vt 0.641187 0.000000 0.000000
vt 0.000000 0.010000 0.000000
vt 0.641187 0.010000 0.000000
vt 0.641601 0.000000 0.000000
vt 0.641601 0.010000 0.000000
vt 0.301000 -0.005000 0.000000
vt 0.308697 -0.005000 0.000000
vt 0.301000 0.005000 0.000000
vt 0.308697 0.005000 0.000000
vt 0.325000 -0.005000 0.000000
vt 0.325000 0.005000 0.000000
vt 0.650000 0.005000 0.000000
vt 0.000000 0.005000 0.000000
vt 0.650000 -0.015000 0.000000
vt 0.000000 -0.015000 0.000000
vt -0.000000 0.000000 0.000000
vt 0.016303 0.000000 0.000000
vt -0.000000 0.005000 0.000000
vt 0.016303 0.005000 0.000000
vt 0.000000 0.000000 0.000000
vt 0.007697 0.000000 0.000000
vt 0.000000 0.005000 0.000000
vt 0.007697 0.005000 0.000000
vt 0.028385 -0.000000 0.000000
vt -0.000000 -0.000000 0.000000
vt -0.124697 -0.625583 0.000000
vt -0.140567 -0.625589 0.000000
vt 0.219039 0.005000 0.000000
vt -0.000000 0.005000 0.000000
vt 0.219039 0.000007 0.000000
vt 0.000000 -0.000000 0.000000
vt 0.153082 -0.625583 0.000000
vt 0.169043 -0.625589 0.000000
vt 0.219043 -0.649993 0.000000
vt 0.169043 -0.625993 0.000000
vt 0.169043 -0.633690 0.000000
vt 0.169043 -0.649993 0.000000
vt 0.000000 0.000000 0.000000
vt 0.005000 0.000000 0.000000
vt 0.000000 0.005000 0.000000
vt 0.005000 0.005000 0.000000
vt 0.169043 0.015000 0.000000
vt -0.049996 0.015000 0.000000
vt 0.169043 0.010000 0.000000
vt -0.049996 -0.005000 0.000000
vt 0.169043 0.000000 0.000000
vt 0.169043 -0.005000 0.000000
vt 0.169157 0.000000 0.000000
vt 0.169157 0.010000 0.000000
vn 0.100000 0.000000 0.000035
vn 0.100000 0.000000 0.000035
vn 0.100000 0.000000 0.000035
vn 0.100000 0.000000 0.000035
vn 0.100000 0.000000 0.000035
vn 0.023768 0.000000 0.097134
vn 0.023768 0.000000 0.097134
vn 0.023768 0.000000 0.097134
vn 0.023768 0.000000 0.097134
vn -0.000001 0.000000 0.100000
vn -0.000001 0.000000 0.100000
vn -0.000001 0.000000 0.100000
vn -0.000001 0.000000 0.100000
vn 0.000000 0.000000 0.100000
vn 0.000000 0.000000 0.100000
vn 0.000000 0.000000 0.100000
vn 0.000000 0.000000 0.100000
vn -0.000000 0.000000 0.100000
vn -0.000000 0.000000 0.100000
vn -0.000000 0.000000 0.100000
vn -0.000000 0.000000 0.100000
vn 0.000000 0.100000 0.000000
vn 0.000000 0.100000 0.000000
vn 0.000000 0.100000 0.000000
vn 0.000000 0.100000 0.000000
vn 0.000000 -0.100000 0.000000
vn 0.000000 -0.100000 0.000000
vn 0.000000 -0.100000 0.000000
vn 0.000000 -0.100000 0.000000
vn 0.000000 -0.100000 0.000000
vn 0.000000 -0.100000 0.000000
vn 0.000000 -0.100000 0.000000
vn 0.000000 -0.100000 0.000000
vn 0.000000 -0.100000 0.000000
vn 0.000000 -0.100000 0.000000
vn -0.000001 0.000000 0.100000
vn -0.000001 0.000000 0.100000
vn -0.000001 0.000000 0.100000
vn -0.000001 0.000000 0.100000
vn 0.000000 -0.100000 0.000000
vn 0.000000 -0.100000 0.000000
vn 0.000000 -0.100000 0.000000
vn 0.000000 -0.100000 0.000000
vn 0.000000 -0.100000 0.000000
vn 0.000000 -0.100000 0.000000
vn 0.000000 -0.100000 0.000000
vn 0.100000 -0.000000 0.000000
vn 0.100000 -0.000000 0.000000
vn 0.100000 -0.000000 0.000000
vn 0.100000 -0.000000 0.000000
vn 0.100000 -0.000000 0.000000
vn 0.100000 -0.000000 0.000000
vn 0.000001 0.000000 -0.100000
vn 0.000001 0.000000 -0.100000
vn 0.000001 0.000000 -0.100000
vn 0.000001 0.000000 -0.100000
vn 0.000000 0.100000 0.000000
vn 0.000000 0.100000 0.000000
vn 0.000000 0.100000 0.000000
vn 0.000000 0.100000 0.000000
vn 0.100000 -0.000000 0.000001
vn 0.100000 -0.000000 0.000001
vn 0.100000 -0.000000 0.000001
vn 0.100000 -0.000000 0.000001
vn 0.100000 -0.000000 0.000001
vn 0.100000 -0.000000 0.000001
vn -0.000001 0.000000 0.100000
vn -0.000001 0.000000 0.100000
vn -0.000001 0.000000 0.100000
vn -0.000001 0.000000 0.100000
vn 0.100000 -0.000000 0.000035
vn 0.100000 -0.000000 0.000035
vn 0.100000 -0.000000 0.000035
vn 0.100000 -0.000000 0.000035
vn 0.100000 -0.000000 0.000035
vn 0.023768 -0.000000 0.097134
vn 0.023768 -0.000000 0.097134
vn 0.023768 -0.000000 0.097134
vn 0.023768 -0.000000 0.097134
vn 0.000000 0.100000 0.000000
vn 0.000000 0.100000 0.000000
vn 0.000000 0.100000 0.000000
vn -0.000001 0.000000 0.100000
vn -0.000001 0.000000 0.100000
vn -0.000001 0.000000 0.100000
vn -0.000001 0.000000 0.100000
vn 0.021922 -0.000000 0.097567
vn 0.021922 -0.000000 0.097567
vn 0.021922 -0.000000 0.097567
vn 0.021922 -0.000000 0.097567
vn 0.021922 -0.000000 0.097567
vn 0.021922 -0.000000 0.097567
vn 0.000000 0.000000 0.100000
vn 0.000000 0.000000 0.100000
vn 0.000000 0.000000 0.100000
vn 0.000000 0.000000 0.100000
vn 0.000000 0.000000 0.100000
vn 0.000000 0.000000 0.100000
vn 0.000000 0.000000 -0.100000
vn 0.000000 0.000000 -0.100000
vn 0.000000 0.000000 -0.100000
vn 0.000000 0.000000 -0.100000
vn 0.000000 -0.000000 0.100000
vn 0.000000 -0.000000 0.100000
vn 0.000000 -0.000000 0.100000
vn 0.000000 -0.000000 0.100000
vn -0.000000 0.000000 0.100000
vn -0.000000 0.000000 0.100000
vn -0.000000 0.000000 0.100000
vn -0.000000 0.000000 0.100000
vn 0.000000 -0.100000 0.000000
vn 0.000000 -0.100000 0.000000
vn 0.000000 -0.100000 0.000000
vn 0.000000 -0.100000 0.000000
vn 0.000000 0.100000 0.000000
vn 0.000000 0.100000 0.000000
vn 0.000000 0.100000 0.000000
vn 0.000000 0.100000 0.000000
vn 0.000000 0.100000 0.000000
vn 0.000000 0.100000 0.000000
vn 0.000000 0.100000 0.000000
vn 0.000000 0.100000 0.000000
vn 0.000000 0.100000 0.000000
vn 0.000000 0.100000 0.000000
vn -0.000001 0.000000 0.100000
vn -0.000001 0.000000 0.100000
vn -0.000001 0.000000 0.100000
vn -0.000001 0.000000 0.100000
vn -0.100000 0.000000 -0.000001
vn -0.100000 0.000000 -0.000001
vn -0.100000 0.000000 -0.000001
vn -0.100000 0.000000 -0.000001
vn -0.100000 0.000000 -0.000001
vn -0.100000 0.000000 -0.000001
vn -0.100000 0.000000 -0.000001
vn -0.100000 0.000000 -0.000001
usemtl Steel_-_Satin
f 1/1/1 2/2/2 5/3/3
f 5/3/3 2/2/2 4/4/4
f 4/4/4 2/2/2 3/5/5
f 6/6/6 4/7/7 7/8/8
f 7/8/8 4/7/7 3/9/9
f 8/10/10 1/11/11 9/12/12
f 9/12/12 1/11/11 5/13/13
f 10/14/14 11/15/15 13/16/16
f 13/16/16 11/15/15 12/17/17
f 11/18/18 8/19/19 12/20/20
f 12/20/20 8/19/19 9/21/21
f 7/22/22 3/23/23 14/24/24
f 14/24/24 3/23/23 2/25/25
f 16/26/26 17/27/27 15/28/28
f 15/28/28 17/27/27 6/29/29
f 6/29/29 17/27/27 4/30/30
f 4/30/30 17/27/27 5/31/31
f 5/31/31 17/27/27 18/32/32
f 5/31/31 18/32/32 9/33/33
f 9/33/33 18/32/32 12/34/34
f 12/34/34 18/32/32 13/35/35
f 6/36/36 7/37/37 15/38/38
f 15/38/38 7/37/37 19/39/39
f 7/40/40 20/41/41 19/42/42
f 19/42/42 20/41/41 21/43/43
f 2/44/44 1/45/45 8/46/46
f 22/47/47 24/48/48 18/49/49
f 18/49/49 24/48/48 10/50/50
f 18/49/49 10/50/50 13/51/51
f 22/47/47 23/52/52 24/48/48
f 25/53/53 26/54/54 16/55/55
f 16/55/55 26/54/54 17/56/56
f 27/57/57 28/58/58 30/59/59
f 30/59/59 28/58/58 29/60/60
f 14/61/61 31/62/62 7/63/63
f 7/63/63 31/62/62 27/64/64
f 7/63/63 27/64/64 20/65/65
f 20/65/65 27/64/64 30/66/66
f 30/67/67 29/68/68 20/69/69
f 20/69/69 29/68/68 21/70/70
f 33/71/71 34/72/72 32/73/73
f 32/73/73 34/72/72 35/74/74
f 32/73/73 35/74/74 36/75/75
f 35/76/76 37/77/77 36/78/78
f 36/78/78 37/77/77 27/79/79
f 33/80/80 32/81/81 38/82/82
f 33/83/83 38/84/84 34/85/85
f 34/85/85 38/84/84 39/86/86
f 14/87/87 2/88/88 31/89/89
f 31/89/89 2/88/88 32/90/90
f 32/90/90 2/88/88 8/91/91
f 32/90/90 8/91/91 38/92/92
f 8/93/93 11/94/94 38/95/95
f 38/95/95 11/94/94 40/96/96
f 40/96/96 11/94/94 10/97/97
f 40/96/96 10/97/97 24/98/98
f 26/99/99 22/100/100 17/101/101
f 17/101/101 22/100/100 18/102/102
f 40/103/103 24/104/104 41/105/105
f 41/105/105 24/104/104 23/106/106
f 38/107/107 40/108/108 39/109/109
f 39/109/109 40/108/108 41/110/110
f 27/111/111 31/112/112 36/113/113
f 36/113/113 31/112/112 32/114/114
f 25/115/115 42/116/116 26/117/117
f 26/117/117 42/116/116 37/118/118
f 26/117/117 37/118/118 35/119/119
f 35/119/119 34/120/120 26/117/117
f 26/117/117 34/120/120 22/121/121
f 22/121/121 34/120/120 39/122/122
f 22/121/121 39/122/122 41/123/123
f 41/123/123 23/124/124 22/121/121
f 27/125/125 37/126/126 28/127/127
f 28/127/127 37/126/126 42/128/128
f 42/129/129 25/130/130 28/131/131
f 28/131/131 25/130/130 16/132/132
f 28/131/131 16/132/132 19/133/133
f 19/133/133 16/132/132 15/134/134
f 19/133/133 21/135/135 28/131/131
f 28/131/131 21/135/135 29/136/136
g Body31

v 6.500132 0.100000 0.590082
v 6.530941 0.100000 0.590093
v 6.530941 0.150000 0.590093
v 6.500132 0.150000 0.590082
v 6.500132 -0.050000 0.550082
v 6.500132 -0.000000 0.550082
v 6.255941 0.000000 0.549995
v 6.255941 -0.050000 0.549995
v 6.530941 -0.000000 0.550082
v 6.530941 0.100000 0.550093
v 6.530941 0.150000 0.550093
v 6.530941 -0.050000 0.590082
v 6.530941 -0.050000 0.550093
v 6.500132 -0.050000 0.590082
v 6.500132 0.000000 0.500082
v 6.500132 -0.050000 0.500082
v 6.255958 -0.050000 0.499995
v 6.255958 0.000000 0.499995
v 6.500132 -0.050000 0.000093
v 6.530958 -0.050000 0.000093
v 6.530958 -0.050000 0.500093
v 6.530958 0.150000 0.000093
v 6.530958 0.150000 0.500093
v 6.500132 0.150000 0.000093
v 6.500132 0.100000 0.500082
v 6.500132 0.150000 0.500082
v 6.500132 0.150000 0.550082
v 6.500132 0.100000 0.550082
v 6.255958 0.100000 0.499995
v 6.255958 0.150000 0.499995
v 6.255941 0.100000 0.549995
v 6.255941 0.150000 0.549995
vt 0.000000 0.000000 0.000000
vt 0.003081 0.000000 0.000000
vt 0.000000 0.005000 0.000000
vt 0.003081 0.005000 0.000000
vt -0.005000 0.024419 0.000000
vt -0.005000 0.000000 0.000000
vt -0.000000 0.024419 0.000000
vt -0.000000 0.000000 0.000000
vt 0.010000 0.000001 0.000000
vt 0.010000 0.004001 0.000000
vt 0.000000 0.000000 0.000000
vt -0.005000 0.004000 0.000000
vt -0.005000 0.000001 0.000000
vt 0.015000 0.000001 0.000000
vt 0.015000 0.004001 0.000000
vt -0.003081 0.000000 0.000000
vt -0.003081 -0.015000 0.000000
vt -0.000000 0.000000 0.000000
vt 0.000000 -0.015000 0.000000
vt 0.000000 0.024417 0.000000
vt -0.005000 0.024417 0.000000
vt 0.000000 0.000000 0.000000
vt -0.005000 0.000000 0.000000
vt -0.000000 0.024419 0.000000
vt -0.005000 0.024417 0.000000
vt -0.000000 0.000000 0.000000
vt -0.005000 0.000000 0.000000
vt -0.000000 0.000000 0.000000
vt 0.000000 0.024417 0.000000
vt -0.005000 -0.000000 0.000000
vt -0.005000 0.024419 0.000000
vt 0.000000 0.027500 0.000000
vt -0.005000 0.027500 0.000000
vt 0.049999 0.024400 0.000000
vt 0.050000 0.027482 0.000000
vt -0.008999 0.027501 0.000000
vt -0.009000 0.024421 0.000000
vt -0.002500 -0.002500 0.000000
vt 0.002500 -0.002500 0.000000
vt -0.002500 0.002500 0.000000
vt 0.002500 0.002500 0.000000
vt 0.015000 0.050000 0.000000
vt -0.005000 0.050000 0.000000
vt 0.015000 0.000000 0.000000
vt -0.005000 0.000000 0.000000
vt 0.000000 0.005000 0.000000
vt -0.003083 0.005000 0.000000
vt 0.000000 -0.015000 0.000000
vt -0.003083 -0.015000 0.000000
vt 0.005000 -0.005000 0.000000
vt 0.054999 -0.005000 0.000000
vt 0.005000 0.000000 0.000000
vt 0.005000 0.010000 0.000000
vt 0.000000 0.010000 0.000000
vt 0.054999 0.015000 0.000000
vt 0.005000 0.015000 0.000000
vt 0.000000 0.015000 0.000000
vt -0.004000 0.015000 0.000000
vt -0.004000 0.000000 0.000000
vt -0.000000 0.000000 0.000000
vt -0.000000 -0.005000 0.000000
vt -0.004000 -0.005000 0.000000
vt -0.000000 0.024417 0.000000
vt 0.000000 0.000000 0.000000
vt 0.005000 0.024417 0.000000
vt 0.005000 0.000000 0.000000
vt 0.000000 0.024419 0.000000
vt 0.000000 0.000000 0.000000
vt 0.005000 0.024417 0.000000
vt 0.005000 0.000000 0.000000
vt 0.005000 0.024419 0.000000
vt 0.000000 0.024419 0.000000
vt 0.005000 0.000000 0.000000
vt 0.000000 0.000000 0.000000
vt 0.000000 0.000000 0.000000
vt 0.005000 -0.000000 0.000000
vt -0.000000 0.024417 0.000000
vt 0.005000 0.024419 0.000000
vt -0.000000 0.027500 0.000000
vt 0.005000 0.027500 0.000000
vt 0.009000 0.024421 0.000000
vt 0.009000 0.027501 0.000000
vt -0.050000 0.027482 0.000000
vt -0.049999 0.024400 0.000000
vt -0.002500 -0.017500 0.000000
vt 0.002500 -0.017500 0.000000
vt -0.002499 -0.012500 0.000000
vt 0.002500 0.002500 0.000000
vt -0.002500 -0.002500 0.000000
vt -0.002500 0.002500 0.000000
vt 0.002500 0.002500 0.000000
vt -0.002500 0.002500 0.000000
vt 0.002500 -0.002500 0.000000
vt -0.002500 -0.002500 0.000000
vn -0.000035 0.000000 0.100000
vn -0.000035 0.000000 0.100000
vn -0.000035 0.000000 0.100000
vn -0.000035 0.000000 0.100000
vn -0.000035 0.000000 0.100000
vn -0.000035 0.000000 0.100000
vn -0.000035 0.000000 0.100000
vn -0.000035 0.000000 0.100000
vn 0.100000 0.000000 0.000000
vn 0.100000 0.000000 0.000000
vn 0.100000 0.000000 0.000000
vn 0.100000 0.000000 0.000000
vn 0.100000 0.000000 0.000000
vn 0.100000 0.000000 0.000000
vn 0.100000 0.000000 0.000000
vn 0.000000 0.000000 0.100000
vn 0.000000 0.000000 0.100000
vn 0.000000 0.000000 0.100000
vn 0.000000 0.000000 0.100000
vn 0.000035 0.000000 -0.100000
vn 0.000035 0.000000 -0.100000
vn 0.000035 0.000000 -0.100000
vn 0.000035 0.000000 -0.100000
vn 0.000000 0.100000 0.000000
vn 0.000000 0.100000 0.000000
vn 0.000000 0.100000 0.000000
vn 0.000000 0.100000 0.000000
vn 0.000000 -0.100000 0.000000
vn 0.000000 -0.100000 0.000000
vn 0.000000 -0.100000 0.000000
vn 0.000000 -0.100000 0.000000
vn 0.000000 -0.100000 0.000000
vn 0.000000 -0.100000 0.000000
vn 0.000000 -0.100000 0.000000
vn 0.000000 -0.100000 0.000000
vn 0.000000 -0.100000 0.000000
vn 0.000000 -0.100000 0.000000
vn -0.100000 0.000000 -0.000035
vn -0.100000 0.000000 -0.000035
vn -0.100000 0.000000 -0.000035
vn -0.100000 0.000000 -0.000035
vn 0.100000 0.000000 0.000000
vn 0.100000 0.000000 0.000000
vn 0.100000 0.000000 0.000000
vn 0.100000 0.000000 0.000000
vn 0.000000 0.000000 -0.100000
vn 0.000000 0.000000 -0.100000
vn 0.000000 0.000000 -0.100000
vn 0.000000 0.000000 -0.100000
vn -0.100000 0.000000 0.000000
vn -0.100000 0.000000 0.000000
vn -0.100000 0.000000 0.000000
vn -0.100000 0.000000 0.000000
vn -0.100000 0.000000 0.000000
vn -0.100000 0.000000 0.000000
vn -0.100000 0.000000 0.000000
vn -0.100000 0.000000 0.000000
vn -0.100000 0.000000 0.000000
vn -0.100000 0.000000 0.000000
vn -0.100000 0.000000 0.000000
vn -0.100000 0.000000 0.000000
vn -0.100000 0.000000 0.000000
vn 0.000035 -0.000000 -0.100000
vn 0.000035 -0.000000 -0.100000
vn 0.000035 -0.000000 -0.100000
vn 0.000035 -0.000000 -0.100000
vn 0.000000 -0.100000 0.000000
vn 0.000000 -0.100000 0.000000
vn 0.000000 -0.100000 0.000000
vn 0.000000 -0.100000 0.000000
vn -0.000035 0.000000 0.100000
vn -0.000035 0.000000 0.100000
vn -0.000035 0.000000 0.100000
vn -0.000035 0.000000 0.100000
vn 0.000000 0.100000 0.000000
vn 0.000000 0.100000 0.000000
vn 0.000000 0.100000 0.000000
vn 0.000000 0.100000 0.000000
vn 0.000000 0.100000 0.000000
vn 0.000000 0.100000 0.000000
vn 0.000000 0.100000 0.000000
vn 0.000000 0.100000 0.000000
vn 0.000000 0.100000 0.000000
vn 0.000000 0.100000 0.000000
vn 0.100000 0.000000 0.000035
vn 0.100000 0.000000 0.000035
vn 0.100000 0.000000 0.000035
vn 0.100000 0.000000 0.000035
vn 0.100000 0.000000 0.000035
vn 0.100000 0.000000 0.000035
vn -0.100000 0.000000 -0.000035
vn -0.100000 0.000000 -0.000035
vn -0.100000 0.000000 -0.000035
vn -0.100000 0.000000 -0.000035
f 43/137/137 44/138/138 46/139/139
f 46/139/139 44/138/138 45/140/140
f 48/141/141 49/142/142 47/143/143
f 47/143/143 49/142/142 50/144/144
f 52/145/145 44/146/146 51/147/147
f 51/147/147 44/146/146 54/148/148
f 51/147/147 54/148/148 55/149/149
f 53/150/150 45/151/151 52/145/145
f 52/145/145 45/151/151 44/146/146
f 43/152/152 56/153/153 44/154/154
f 44/154/154 56/153/153 54/155/155
f 57/156/156 58/157/157 60/158/158
f 60/158/158 58/157/157 59/159/159
f 48/160/160 57/161/161 49/162/162
f 49/162/162 57/161/161 60/163/163
f 59/164/164 58/165/165 50/166/166
f 50/166/166 58/165/165 47/167/167
f 47/167/167 58/165/165 63/168/168
f 47/167/167 63/168/168 55/169/169
f 61/170/170 62/171/171 58/165/165
f 58/165/165 62/171/171 63/168/168
f 54/172/172 56/173/173 55/169/169
f 55/169/169 56/173/173 47/167/167
f 60/174/174 59/175/175 49/176/176
f 49/176/176 59/175/175 50/177/177
f 62/178/178 64/179/179 63/180/180
f 63/180/180 64/179/179 65/181/181
f 66/182/182 64/183/183 61/184/184
f 61/184/184 64/183/183 62/185/185
f 68/186/186 66/187/187 67/188/188
f 67/188/188 66/187/187 57/189/189
f 67/188/188 57/189/189 48/190/190
f 66/187/187 61/191/191 57/189/189
f 57/189/189 61/191/191 58/192/192
f 47/193/193 56/194/194 48/190/190
f 48/190/190 56/194/194 43/195/195
f 48/190/190 43/195/195 70/196/196
f 70/196/196 43/195/195 69/197/197
f 69/197/197 43/195/195 46/198/198
f 70/196/196 67/188/188 48/190/190
f 67/199/199 71/200/200 68/201/201
f 68/201/201 71/200/200 72/202/202
f 70/203/203 73/204/204 67/205/205
f 67/205/205 73/204/204 71/206/206
f 70/207/207 69/208/208 73/209/209
f 73/209/209 69/208/208 74/210/210
f 72/211/211 74/212/212 68/213/213
f 68/213/213 74/212/212 69/214/214
f 68/213/213 69/214/214 65/215/215
f 65/215/215 69/214/214 53/216/216
f 53/216/216 69/214/214 46/217/217
f 53/216/216 46/217/217 45/218/218
f 65/215/215 64/219/219 68/213/213
f 68/213/213 64/219/219 66/220/220
f 55/221/221 63/222/222 51/223/223
f 51/223/223 63/222/222 65/224/224
f 51/223/223 65/224/224 52/225/225
f 52/225/225 65/224/224 53/226/226
f 73/227/227 74/228/228 71/229/229
f 71/229/229 74/228/228 72/230/230
# 74 vertices
# 230 texture params
# 230 normals
# 140 facets

# 2 groups
